<?xml version="1.0" encoding="utf-8"?>
<!-- Generator: Adobe Illustrator 15.1.0, SVG Export Plug-In . SVG Version: 6.00 Build 0)  -->
<!DOCTYPE svg PUBLIC "-//W3C//DTD SVG 1.1//EN" "http://www.w3.org/Graphics/SVG/1.1/DTD/svg11.dtd">
<svg version="1.1" id="Layer_1" xmlns="http://www.w3.org/2000/svg" xmlns:xlink="http://www.w3.org/1999/xlink" x="0px" y="0px"
	 width="252px" height="62.55px" viewBox="0 0 252 62.55" enable-background="new 0 0 252 62.55" xml:space="preserve">
<metadata><?xpacket begin="﻿" id="W5M0MpCehiHzreSzNTczkc9d"?>
<x:xmpmeta xmlns:x="adobe:ns:meta/" x:xmptk="Adobe XMP Core 5.0-c060 61.134777, 2010/02/12-17:32:00        ">
   <rdf:RDF xmlns:rdf="http://www.w3.org/1999/02/22-rdf-syntax-ns#">
      <rdf:Description rdf:about=""
            xmlns:dc="http://purl.org/dc/elements/1.1/">
         <dc:format>image/svg+xml</dc:format>
         <dc:title>
            <rdf:Alt>
               <rdf:li xml:lang="x-default">FinalTransparent</rdf:li>
            </rdf:Alt>
         </dc:title>
      </rdf:Description>
      <rdf:Description rdf:about=""
            xmlns:xmp="http://ns.adobe.com/xap/1.0/"
            xmlns:xmpGImg="http://ns.adobe.com/xap/1.0/g/img/">
         <xmp:MetadataDate>2015-03-07T18:06:46-05:00</xmp:MetadataDate>
         <xmp:ModifyDate>2015-03-07T18:06:46-05:00</xmp:ModifyDate>
         <xmp:CreateDate>2015-03-07T18:06:45-05:00</xmp:CreateDate>
         <xmp:CreatorTool>Adobe Illustrator CS5.1</xmp:CreatorTool>
         <xmp:Thumbnails>
            <rdf:Alt>
               <rdf:li rdf:parseType="Resource">
                  <xmpGImg:width>256</xmpGImg:width>
                  <xmpGImg:height>88</xmpGImg:height>
                  <xmpGImg:format>JPEG</xmpGImg:format>
                  <xmpGImg:image>/9j/4AAQSkZJRgABAgEASABIAAD/7QAsUGhvdG9zaG9wIDMuMAA4QklNA+0AAAAAABAASAAAAAEA&#xA;AQBIAAAAAQAB/+4ADkFkb2JlAGTAAAAAAf/bAIQABgQEBAUEBgUFBgkGBQYJCwgGBggLDAoKCwoK&#xA;DBAMDAwMDAwQDA4PEA8ODBMTFBQTExwbGxscHx8fHx8fHx8fHwEHBwcNDA0YEBAYGhURFRofHx8f&#xA;Hx8fHx8fHx8fHx8fHx8fHx8fHx8fHx8fHx8fHx8fHx8fHx8fHx8fHx8fHx8f/8AAEQgAWAEAAwER&#xA;AAIRAQMRAf/EAaIAAAAHAQEBAQEAAAAAAAAAAAQFAwIGAQAHCAkKCwEAAgIDAQEBAQEAAAAAAAAA&#xA;AQACAwQFBgcICQoLEAACAQMDAgQCBgcDBAIGAnMBAgMRBAAFIRIxQVEGE2EicYEUMpGhBxWxQiPB&#xA;UtHhMxZi8CRygvElQzRTkqKyY3PCNUQnk6OzNhdUZHTD0uIIJoMJChgZhJRFRqS0VtNVKBry4/PE&#xA;1OT0ZXWFlaW1xdXl9WZ2hpamtsbW5vY3R1dnd4eXp7fH1+f3OEhYaHiImKi4yNjo+Ck5SVlpeYmZ&#xA;qbnJ2en5KjpKWmp6ipqqusra6voRAAICAQIDBQUEBQYECAMDbQEAAhEDBCESMUEFURNhIgZxgZEy&#xA;obHwFMHR4SNCFVJicvEzJDRDghaSUyWiY7LCB3PSNeJEgxdUkwgJChgZJjZFGidkdFU38qOzwygp&#xA;0+PzhJSktMTU5PRldYWVpbXF1eX1RlZmdoaWprbG1ub2R1dnd4eXp7fH1+f3OEhYaHiImKi4yNjo&#xA;+DlJWWl5iZmpucnZ6fkqOkpaanqKmqq6ytrq+v/aAAwDAQACEQMRAD8AmU3mv8wvLcVhqMkd+19P&#xA;6Vj5p/ScF3c2SajealawQvp1uhQyhYHn4pasFYcK1kqMVdqvnj87BeRXn6CmkjW1+uWemw2N+qPN&#xA;Da6mecksMilPVkhta2s9W/eqo+JCzKpxqHn785rEX8X+HorqWP1YbO6h0++MKyIbFknlRJpZJIWS&#xA;/lQrFV6wOy8t0VV2pXn5kaze+VNbj0O7EqaBc6jqOiDUL/SYF1JJLV4oZDCrCWX7apBcUUqW5H4T&#xA;iq0fmF+cclvczQeXo3isrO7vVkk02/he9a2+qFLWK3kmEtvK5uJ41L8+fpc1XiaYqzn8utQ803ui&#xA;3beZ6jVINSvoAptJLQC3juGFvx5llmVoeLLLH8NDxNWVmKrKMVdirsVdirsVdirsVdirsVdirsVd&#xA;irsVdirsVdirsVdirsVdirsVdirsVdirsVdiqjdWVndokd1BHcJHJHNGsqK4WWJxJHIAwNGR1DKe&#xA;oIqMVVsVdirsVdirsVdirsVdirsVdirsVdirsVdirsVdirsVdirsVdirsVdirsVdirsVdirsVdir&#xA;sVdirsVdirsVdirsVdirsVdirsVdirsVdirsVdirsVdirsVdirsVdirsVdirsVdirsVdirsVdirs&#xA;VdirsVdirsVdirsVdirsVdirsVdirsVdirsVdirsVdirsVdirsVdirsVdirsVdirsVdirsVdirsV&#xA;dirsVdirsVdirsVdirsVdirsVdirsVdirsVdirsVdirsVdirsVdirsVdirsVdirsVdirsVdirsVd&#xA;irsVdirsVdirsVdirsVdirsVdirsVdirsVdirsVdirsVdirsVdirsVdirsVdirEfN3nT/D/mby9Z&#xA;yn/QNSM8d61No94khkJpsBI9DvSh+WUZcvDIDoXcdn9m/mMGWQ+uHDw+f1WPkGS6nqNppun3F/eP&#xA;6dtaxtLK/wDkqK7eJPYZdKQAsuswYZZZiEd5SNJH+XnmS78xeXBqV4npXDXNwjRUoUVZW4IdhuiE&#xA;LXKsGQyjZc/tjRR02fgibHDH47bn4lLpfPNxH+YkGjFKaJMslklzQUOooqzMvLrQI4Sn8x9sic37&#xA;yun6XJj2XE6I5f8AKipV/QNj7xfuRv5h63q+kaZp8mlSpDcXeo29m7yIJBwn5Kdj70OSzzMQK72j&#xA;sfS482SQyCxHHKXOuSD1TWvM2geZdCs7m7h1PT9Zma1eP0RDPEwFfUUoxVlFfiqMjKcoyA5gt2DT&#xA;YNRgySjEwnjHFzsHy3+xV8teZdXXzXqnlfX2RruIC60m4RPTE9o23QbckPX6fDDjyHiMZfBjrdFj&#xA;OnhqMP0n0zHPhl+o/q71v+JdZuNF8zeYLd0XS7S3uP0GCgJka1iYtcMe6PItEHgK98fEJEpdOi/k&#xA;sUcuHDK/ElKPH5cRHp94HPzTvyjqd1qnlfS9RuyDc3dtHNMVHEcnUE0HbLMUiYglwe0MEcWonCP0&#xA;xkQEH5+16/0jy/K2lL6ms3VYdOiADEuEaR2CmoPCNGbfbbI5pmMdubf2TpIZsw8TbFHeXu5D5kgJ&#xA;h5a1yDXdAsdXgoEvIlcqP2X6On+xcFcljnxRBcbW6U4M0sZ/hP8AZ8wxfyb+Ycl9rF1oetp9XvDc&#xA;XA0m5I4JdQxTvEVXtzQoRt1plOLPZ4T8HbdpdjjHijlxbx4Y8Y/mkxB+RtP9T1W9g82aHpsRAtb6&#xA;G9kuBQEk24i9Oh7f3hy2UiJAd9uuwaeMtPkyH6omAH+dxX9yR6PqHmzWdf8AMNrHqkdpaaVdfV7d&#xA;BbJIxDLyHJmYdPxyuMpSkRfJz9Th0+HDikYGUskbPqpubzJ5k8ueYNP0/wAwSQX+k6vL9XtNThjM&#xA;DxTn7Mc0fJ1IbsQffE5JQkBLcFEdFg1OGc8IMMmMWYk2CO8HZm+ZDonYq7FXYq7FXYq7FXYq7FXY&#xA;q7FXYq7FXYq7FXYq7FWEa7o1p5m8z6zo9x/cpo8MJfr6ctxPJIrD3X0EbfMecRORHk73S6mWlwY8&#xA;sefik+8RiB/viEn8qajq3mZrPyzq0LK3luT/AJ2B23SeS2bjaID+0HZfUavXh75XjkZ1E/w8/wBD&#xA;m6/Dj0vFnxn++H7v+iJfWfh9I9/kv8q67H5f0bzrI6+o+nazdm1h7yNOVEEe3d32w458Il5SLHX6&#xA;U6jLpx/PxRs91XxH4BZr3kLzNH5J4DU45r7TnOrRhbYCVrxS0zkS+o1SWZqHjvtgnhlwc9xv8WWk&#xA;7VwHVXwEQmPD+rbh5Davd1b86a1b+Y/IvlrU4nMSX2qWPqGNuLRvyZZArdijgiuOWfHCJ7yEdm6a&#xA;Wm1ebGd+HHP4javmF3l+JdA8/Sad5lZ769veTeXNdunaRmiOzWw5HhG4/wAgDlX3UYYDhnUtz0K6&#xA;uX5jRieD0Rj/AHmOO2/87vI9918Civzj023k0zTdRSR7e/gvI7WK4ibhJ6N3WOaOvuuHVR2B620+&#xA;zmYjJOFXAwMqPK47gsj83WtvaeQdatbaMRW8GlXUcMa9FRLdgqj5AZblFQI8nW9nzM9ZjlI2TkiT&#xA;/pgt/Lv/AJQXQf8AmCh/4gMcH0D3J7Y/xvL/AFz96V+nqmv+b7q/069jtbTQOWnwGSH11kuZAHum&#xA;A5x8eA4JX/WyG8p2D9OzlcWPT6aMJxMpZfWd6qI2j0PPc/JA/l99Y8u+ZdY8mXkokXbVNLkC+mrR&#xA;TbSqiVPEI/Ra+ORw+mRgfeHI7XrU4MeqiP6Euu45WfMfoXad5T03zT5HSOVjDdRX2ozabqEdVlgl&#xA;+vzlXU7GmwqP40OMcYnD4n70ZtfPSaskbxMMYlHoR4cVDyp5h1u784WWheYoPT13SLa7E1wn91cR&#xA;SGH05k6fa4b/AMOgGOZMxGXMNmv0eKGmlmwG8WSUaHWJHFYP4/WTLyER/ibzoO/6STb/AJ5DJ4fq&#xA;l73F7W/uNP8A8L/ShfzEkGsa/wCW/LdhSW+h1CHU73jv6Ftb1BZ/Dlz2HfI5/VKMRzu23sceDhzZ&#xA;57QMDCP9KUu75PQMynnXYq7FXYq7FXYq7FXYq7FXYqp3DzolYYhK9fsluO3jWhyrNKcRcI8R99Mo&#xA;AE7mkN9Z1P8A5Yl/5HD/AJpzF8fUf6mP9P8AsbeDH/O+x31nU/8AliX/AJHD/mnHx9R/qY/0/wCx&#xA;eDH/ADvsd9Z1P/liX/kcP+acfH1H+pj/AE/7F4Mf877HfWdT/wCWJf8AkcP+acfH1H+pj/T/ALF4&#xA;Mf8AO+x31nU/+WJf+Rw/5px8fUf6mP8AT/sXgx/zvsd9Z1P/AJYl/wCRw/5px8fUf6mP9P8AsXgx&#xA;/wA77ENDbzQX1zfRaYiXd4I1uZRNu4hBEYO1PhDHAMue78If6f8AY2ymJQEDP0xutu/mvgS4gmuJ&#xA;odMjjmunElxIsqhnZVCAseO9FUDCM2cf5If6cfqRIxkADMkR5bcuqAby9YtPJOdEi9Wa5jvZW9b7&#xA;VxCSY5GFKEryyHHm/wBSH+n/AGOQNZKgPENCJjy/hPMJr9Z1P/liX/kcP+acn4+o/wBTH+n/AGOH&#xA;wY/532JKvlTSV0+PTl0GEWUVx9bigExCrOBx9QbdaHK+LNVeEP8AT/sc46/IZmfiniMeG66dyM1f&#xA;S49Yiii1PSIrqOFxLCHlHwuAQGUgAg75KWTPLniH+n/Y06fOcJJx5DGxR26LtTsDqkEcGoaVHcxQ&#xA;yLNGjzdJErxbp1FcMsuc88Q/0/7EYMvhEmEzEkVy6K92Lu8tJrS505Jba4jaKaMzCjI4KspoO4OE&#xA;5s5FeEP9P+xrx8MJCUZ1IGxt3JPF5P0iIwmLQo0+rsrQAXD0QoarxHQUpld5v9SH+n/Y5su0chu8&#xA;p35+lM9NtZNNtzbWOmJBCXaQqJq1eQ8mYkgkkk5OOXOOWIf6f9ji5sgyy4pzJPLl3LJ9OFxqdvqk&#xA;2kxtqNqpS3ufWo6K1QVBA6HkcByZyb8IX/X/AGJhm4cZxjIeCXMUqaday6bbC1sdMSCAMz+mJqjl&#xA;IxZjuD1Y1wxy5xsMQ/0/7GOaYyy4pzs+7ubkgmkvor99MjN5AjxRT+qOQSQgsv2ehKjHxc934Q/0&#xA;/wCxRICBgJnhJuq7ksk8qaZJc3F02iILi6YvcSpcujOx6litPHIcWbn4Q/0/7HJGvyCIj4h4Y8vS&#xA;NkdpenJpUbx6do8Fqsh5SenIoLt4u3GrH3OSjkzx5Yh/px+poz5vFNzyGVd4/anWbFwXYq7FXYq7&#xA;FXYq7FXYq7FXYq8w/wCcl728sfyU8w3llPJa3cBsmhuIHaORCb+BSVdSGHwsRiqUN+Vvl/Ufyxs/&#xA;MCajqel+YRokN4utxapqAeOYWomMjK0zJx5klvh6dMVTr/nHTzlrvm38q9O1TXJTcajHJPayXbbN&#xA;MsLkI7UA+Lj8JPelcVZD+bPqj8rvNzxSvDLFo99LHLGSrq0Vu7qQw3G64q83/Kj8r9E80/lRoWsa&#xA;3fav+nr22kkfVYtX1BZULyOFdEM7QqfTCg/u6Yqmf/OMfmzzN5h8maomu3smq/orVJ7Gx1aY1kng&#xA;REYcm6uQW+0exp2xV7Bir51Ouedvzj1zzM+iXc9r5K8tS/U7DTrO4No2q3QNGM9yhV/R4jnwDLVS&#xA;oqDVhGZIG3NyNLHHLJEZSYw6kb/j8bFCeYPIvk/SvIVnqTT3nljzqZb9LRtKnn5PNBemN43k5yVW&#xA;FQFVml6b/GdsxJZjGAJPq32+L0WHsuGbUyx448WGoeq6lEGFgjzlzI4T/m82Rf8AOOn5u675ivNU&#xA;8l+a5xda/o6Ce01DiFa5tCQpMgFBzTmm/cNvuCTlY58UQXn9bpZafNLHLnE/2fY9zybivBPzR/M+&#xA;78m/n55dmlLjyz+jobHXZN/SiOo3E3pO/YFDah6/yhgOuKvewQRUbg9DirwI/mlea3/zk1oei2jM&#xA;vlqyj1LTYZRtHc3sVuZLpxuOQjaNYlNOoanXFXvuKvFP+clbnVYJvIQsb2eyhu9fgs7s28rRF0mK&#xA;/A3EjkvwnY7Yq9rxV5L/AM5J+dNU8teUNKisL6TSk1vVbfTtQ1WHaa3tHV3meFv2JOKbN2Fab74q&#xA;mQ/Jbyktxomr+Wby70u7sbi3unvre8uZvr1spDPDOzysJVmQ/a/htir0jFXif/OVb38flTyw1jfX&#xA;FhNP5htbRpraR4m4Twz8viQq23HxxVlsX5KeU4ry0u477WjJZzx3MaSatezRs8TB1DxzSSIy1G4p&#xA;irP8VdirsVdirsVdirsVdirsVdiryr/nKP8A8kT5m/6Mf+6hb4qg9A/K/XfM/wCXmhafrnnPUX8v&#xA;3WmWvr6VZwWloXiaBCsL3CRNKUA+Ej9odcVepaFoWkaBpFro+j2qWWm2SCO3t4xRVUfiSTuSdydz&#xA;viqSfmx/5Kzzl/2w9S/6g5MVfMz2fnPQfyp8k+YrjV9S1X8s7i3WHzNoNtMLeSGKZ2U8JYFikaBq&#xA;04s/X4SaNsq+pvI9v5Sh8p6aPKEcEflx4RJp4tv7so/xV3+LkSTy5fFWtd8VT3FXxN+TPmObyvpW&#xA;seXbuXVrbUbLU5vrVvp9+tpGrhEhPKMwTVflCwLV7DbbMHVT4SOfwL1vs9pBmxS2xEiX8cOI7jv4&#xA;htze++VbWfzEZ9HENhPaaTDa3tvLrNs2oXTNrEX12bnKststRIxFQgqKV3xxjj22279+e7LXTGnr&#xA;JcxLIZRPhy4I/ujwDapdPNhH5eaSzf8AOVmvmxW2S00TSxBfSafC1vbGV0hX0/TMktG5Ma/F1Q7Z&#xA;lwjQp5nV5/FmZer/ADjxH50PufSeTcZ4pdeUNP8AzE8y/m5pF2R6Uy6VpdncGjejPaWrXCyCgqOE&#xA;8/xCu4FMVY35L/OHzDH+WcvkeSo/NHT71fK1nC5q/qSckivGO5428Ubl2Nd0BP2sVVvzA8taf5F8&#xA;8/khaacT6Fnez6ZJM325XumgRpWAB+KSSaRm9zir6JxV4p/zkwRX8vBXc+arEgd6CuKva8VSfzb5&#xA;Q8vebtCuND1+0W8064oWRqhlcfZkjcfEjr2I/Vir5281eW/PX/OP31LzB5W1641ryM14tve+XL48&#xA;jGJqkcCPg+Lj9tFQhuNQwrir6hxV4j/zllD6/k3ytDzeL1fNFgnqRni68oLkclPZh2xVmum/lWLH&#xA;VrLUv8X+Zro2Uvq/VLnUjJbTbEcJ4vTAdPbFWc4q7FXYq7FXYq7FXYq7FXYq7FWJfmx5Gn89eQdT&#xA;8qw3a2D6j6H+luhlCCC4jn+wCla+lTriqeeWtKfR/LmlaTJIJn06zt7R5lHEOYIljLAEmleNcVTH&#xA;FUl866BP5i8oa1oEFwLSTVrKeyFyV5hBPGYyStRXZvHFUq8g/l/b+XPy3sfJWpSR6rbW9vNbXTNH&#xA;xjmjmkdmUxktsVkp1xVJvym/KzWvy7uNU0621tb/AMoXUzz6Zpk0TCezZmrRZuZDKV2YcRU/EKb1&#xA;VekYq8u82/kmLjzrH598naoPL3mxTW69SFbmyu/h4H1oSUKsyHiXU17/AGviwGILZDLKIIB2lz8+&#xA;qR3v5Ufm3qnmqbzBPrej6TqEwjA1CyiuZ3iKQiEvFBKY05MFrRnYD3ynwBx8fV2Z7YyflRp4gCG/&#xA;v3Ns/wDy3/LPQfIel3Frp7zXl/qEpudW1a6bnc3c5qS8jexY0HuepJJvdQy7FWJeQvJFz5Zu/M93&#xA;c3wvZfMWsXGqqFQoIYpVVY4dy3IoEpy2r4DFUHb/AJSeX4PzZuPzGUD9IT2S2ot+Oy3H2HuQ1ftN&#xA;AFj6ePjiqh+bX5X3Xno+XZbTUl0658v6imoo7xeqr8KHhSq0NVG/4Yq9AxV59+bP5X3nnqXy3La6&#xA;kmmyeX9RTUeTxGb1OBUhR8S0+z3rir0HFWH/AJheWPOGsfoq/wDKeuro+q6RO8yxXEZmtLpZE9No&#xA;rhVIalCaEVp23oQqkd5+XnnXzhe6afzB1DTjoulXCXqaJo8UwjubmKvptczXLMxjSv8AdqtD3OKv&#xA;TMVef/nL+Wepef8ARtKsLDVI9Kl0vUYtTWWWEzqzwo6IOIZOhk8cVVbbRvzoF1AbrzNozWqyo1wk&#xA;OlzJI0SsC6KzXThSy1FeJpir/9k=</xmpGImg:image>
               </rdf:li>
            </rdf:Alt>
         </xmp:Thumbnails>
      </rdf:Description>
      <rdf:Description rdf:about=""
            xmlns:xmpMM="http://ns.adobe.com/xap/1.0/mm/"
            xmlns:stRef="http://ns.adobe.com/xap/1.0/sType/ResourceRef#"
            xmlns:stEvt="http://ns.adobe.com/xap/1.0/sType/ResourceEvent#">
         <xmpMM:InstanceID>xmp.iid:ED7F11740720681192B090E578BB7595</xmpMM:InstanceID>
         <xmpMM:DocumentID>xmp.did:ED7F11740720681192B090E578BB7595</xmpMM:DocumentID>
         <xmpMM:OriginalDocumentID>uuid:5D20892493BFDB11914A8590D31508C8</xmpMM:OriginalDocumentID>
         <xmpMM:RenditionClass>proof:pdf</xmpMM:RenditionClass>
         <xmpMM:DerivedFrom rdf:parseType="Resource">
            <stRef:instanceID>uuid:c6250848-3ea8-2d49-ba14-a545fe6665da</stRef:instanceID>
            <stRef:documentID>xmp.did:FB7F1174072068118C14EED974DE6ABC</stRef:documentID>
            <stRef:originalDocumentID>uuid:5D20892493BFDB11914A8590D31508C8</stRef:originalDocumentID>
            <stRef:renditionClass>proof:pdf</stRef:renditionClass>
         </xmpMM:DerivedFrom>
         <xmpMM:History>
            <rdf:Seq>
               <rdf:li rdf:parseType="Resource">
                  <stEvt:action>saved</stEvt:action>
                  <stEvt:instanceID>xmp.iid:F77F1174072068118083EA504A13D038</stEvt:instanceID>
                  <stEvt:when>2013-10-30T10:01:57-04:00</stEvt:when>
                  <stEvt:softwareAgent>Adobe Illustrator CS5.1</stEvt:softwareAgent>
                  <stEvt:changed>/</stEvt:changed>
               </rdf:li>
               <rdf:li rdf:parseType="Resource">
                  <stEvt:action>converted</stEvt:action>
                  <stEvt:parameters>from application/postscript to application/vnd.adobe.illustrator</stEvt:parameters>
               </rdf:li>
               <rdf:li rdf:parseType="Resource">
                  <stEvt:action>saved</stEvt:action>
                  <stEvt:instanceID>xmp.iid:01801174072068118083A65C026AA201</stEvt:instanceID>
                  <stEvt:when>2013-10-30T10:07:36-04:00</stEvt:when>
                  <stEvt:softwareAgent>Adobe Illustrator CS5.1</stEvt:softwareAgent>
                  <stEvt:changed>/</stEvt:changed>
               </rdf:li>
               <rdf:li rdf:parseType="Resource">
                  <stEvt:action>converted</stEvt:action>
                  <stEvt:parameters>from application/postscript to application/vnd.adobe.illustrator</stEvt:parameters>
               </rdf:li>
               <rdf:li rdf:parseType="Resource">
                  <stEvt:action>saved</stEvt:action>
                  <stEvt:instanceID>xmp.iid:F77F1174072068118A6DCA599D5A9BF2</stEvt:instanceID>
                  <stEvt:when>2013-12-06T10:07:34-05:00</stEvt:when>
                  <stEvt:softwareAgent>Adobe Illustrator CS5.1</stEvt:softwareAgent>
                  <stEvt:changed>/</stEvt:changed>
               </rdf:li>
               <rdf:li rdf:parseType="Resource">
                  <stEvt:action>saved</stEvt:action>
                  <stEvt:instanceID>xmp.iid:F87F1174072068118A6DCA599D5A9BF2</stEvt:instanceID>
                  <stEvt:when>2013-12-06T10:07:46-05:00</stEvt:when>
                  <stEvt:softwareAgent>Adobe Illustrator CS5.1</stEvt:softwareAgent>
                  <stEvt:changed>/</stEvt:changed>
               </rdf:li>
               <rdf:li rdf:parseType="Resource">
                  <stEvt:action>converted</stEvt:action>
                  <stEvt:parameters>from application/postscript to application/vnd.adobe.illustrator</stEvt:parameters>
               </rdf:li>
               <rdf:li rdf:parseType="Resource">
                  <stEvt:action>saved</stEvt:action>
                  <stEvt:instanceID>xmp.iid:FA7F1174072068118A6DCA599D5A9BF2</stEvt:instanceID>
                  <stEvt:when>2013-12-06T12:13:53-05:00</stEvt:when>
                  <stEvt:softwareAgent>Adobe Illustrator CS5.1</stEvt:softwareAgent>
                  <stEvt:changed>/</stEvt:changed>
               </rdf:li>
               <rdf:li rdf:parseType="Resource">
                  <stEvt:action>saved</stEvt:action>
                  <stEvt:instanceID>xmp.iid:FB7F1174072068118A6DCA599D5A9BF2</stEvt:instanceID>
                  <stEvt:when>2013-12-06T12:40:21-05:00</stEvt:when>
                  <stEvt:softwareAgent>Adobe Illustrator CS5.1</stEvt:softwareAgent>
                  <stEvt:changed>/</stEvt:changed>
               </rdf:li>
               <rdf:li rdf:parseType="Resource">
                  <stEvt:action>converted</stEvt:action>
                  <stEvt:parameters>from application/postscript to application/vnd.adobe.illustrator</stEvt:parameters>
               </rdf:li>
               <rdf:li rdf:parseType="Resource">
                  <stEvt:action>saved</stEvt:action>
                  <stEvt:instanceID>xmp.iid:F77F1174072068118083A58FA0988FF8</stEvt:instanceID>
                  <stEvt:when>2013-12-11T14:01:10-05:00</stEvt:when>
                  <stEvt:softwareAgent>Adobe Illustrator CS5.1</stEvt:softwareAgent>
                  <stEvt:changed>/</stEvt:changed>
               </rdf:li>
               <rdf:li rdf:parseType="Resource">
                  <stEvt:action>converted</stEvt:action>
                  <stEvt:parameters>from application/postscript to application/vnd.adobe.illustrator</stEvt:parameters>
               </rdf:li>
               <rdf:li rdf:parseType="Resource">
                  <stEvt:action>saved</stEvt:action>
                  <stEvt:instanceID>xmp.iid:FA7F1174072068118C14EED974DE6ABC</stEvt:instanceID>
                  <stEvt:when>2014-03-11T10:17:34-04:00</stEvt:when>
                  <stEvt:softwareAgent>Adobe Illustrator CS5.1</stEvt:softwareAgent>
                  <stEvt:changed>/</stEvt:changed>
               </rdf:li>
               <rdf:li rdf:parseType="Resource">
                  <stEvt:action>saved</stEvt:action>
                  <stEvt:instanceID>xmp.iid:FB7F1174072068118C14EED974DE6ABC</stEvt:instanceID>
                  <stEvt:when>2014-03-11T10:18:27-04:00</stEvt:when>
                  <stEvt:softwareAgent>Adobe Illustrator CS5.1</stEvt:softwareAgent>
                  <stEvt:changed>/</stEvt:changed>
               </rdf:li>
               <rdf:li rdf:parseType="Resource">
                  <stEvt:action>saved</stEvt:action>
                  <stEvt:instanceID>xmp.iid:ED7F11740720681192B090E578BB7595</stEvt:instanceID>
                  <stEvt:when>2015-03-07T18:06:46-05:00</stEvt:when>
                  <stEvt:softwareAgent>Adobe Illustrator CS5.1</stEvt:softwareAgent>
                  <stEvt:changed>/</stEvt:changed>
               </rdf:li>
            </rdf:Seq>
         </xmpMM:History>
      </rdf:Description>
      <rdf:Description rdf:about=""
            xmlns:illustrator="http://ns.adobe.com/illustrator/1.0/">
         <illustrator:StartupProfile>Print</illustrator:StartupProfile>
      </rdf:Description>
      <rdf:Description rdf:about=""
            xmlns:xmpTPg="http://ns.adobe.com/xap/1.0/t/pg/"
            xmlns:stDim="http://ns.adobe.com/xap/1.0/sType/Dimensions#"
            xmlns:stFnt="http://ns.adobe.com/xap/1.0/sType/Font#"
            xmlns:xmpG="http://ns.adobe.com/xap/1.0/g/">
         <xmpTPg:HasVisibleOverprint>False</xmpTPg:HasVisibleOverprint>
         <xmpTPg:HasVisibleTransparency>True</xmpTPg:HasVisibleTransparency>
         <xmpTPg:NPages>1</xmpTPg:NPages>
         <xmpTPg:MaxPageSize rdf:parseType="Resource">
            <stDim:w>252.000488</stDim:w>
            <stDim:h>62.550293</stDim:h>
            <stDim:unit>Pixels</stDim:unit>
         </xmpTPg:MaxPageSize>
         <xmpTPg:Fonts>
            <rdf:Bag>
               <rdf:li rdf:parseType="Resource">
                  <stFnt:fontName>MyriadPro-Regular</stFnt:fontName>
                  <stFnt:fontFamily>Myriad Pro</stFnt:fontFamily>
                  <stFnt:fontFace>Regular</stFnt:fontFace>
                  <stFnt:fontType>Open Type</stFnt:fontType>
                  <stFnt:versionString>Version 2.062;PS 2.000;hotconv 1.0.57;makeotf.lib2.0.21895</stFnt:versionString>
                  <stFnt:composite>False</stFnt:composite>
                  <stFnt:fontFileName>MyriadPro-Regular.otf</stFnt:fontFileName>
               </rdf:li>
            </rdf:Bag>
         </xmpTPg:Fonts>
         <xmpTPg:PlateNames>
            <rdf:Seq>
               <rdf:li>Cyan</rdf:li>
               <rdf:li>Magenta</rdf:li>
               <rdf:li>Yellow</rdf:li>
               <rdf:li>Black</rdf:li>
            </rdf:Seq>
         </xmpTPg:PlateNames>
         <xmpTPg:SwatchGroups>
            <rdf:Seq>
               <rdf:li rdf:parseType="Resource">
                  <xmpG:groupName>Default Swatch Group</xmpG:groupName>
                  <xmpG:groupType>0</xmpG:groupType>
               </rdf:li>
            </rdf:Seq>
         </xmpTPg:SwatchGroups>
      </rdf:Description>
      <rdf:Description rdf:about=""
            xmlns:pdf="http://ns.adobe.com/pdf/1.3/">
         <pdf:Producer>Adobe PDF library 9.90</pdf:Producer>
      </rdf:Description>
   </rdf:RDF>
</x:xmpmeta>
                                                                                                    
                                                                                                    
                                                                                                    
                                                                                                    
                                                                                                    
                                                                                                    
                                                                                                    
                                                                                                    
                                                                                                    
                                                                                                    
                                                                                                    
                                                                                                    
                                                                                                    
                                                                                                    
                                                                                                    
                                                                                                    
                                                                                                    
                                                                                                    
                                                                                                    
                                                                                                    
                           
<?xpacket end="w"?>
	</metadata>
<g>
	<g>
		<g>
			<defs>
				<path id="SVGID_1_" d="M99.723,58.464c0,0-0.909,0.97-3.341,2.785c-1.191,0.891-6.621,0.842-10.257-0.103
					c-3.781-0.979-5.75-2.875-5.75-2.875l-3.25-10l1-6.5l1.25-3.125l3.75-3.375l7.312-2.118c0,0,9.074,1.791,10.407,3.118
					c1.334,1.328,1.104,2.149,1.104,2.149l1.802,14.726L99.723,58.464z"/>
			</defs>
			<clipPath id="SVGID_2_">
				<use xlink:href="#SVGID_1_"  overflow="visible"/>
			</clipPath>
			<g clip-path="url(#SVGID_2_)">
				
					<image overflow="visible" enable-background="new    " width="910" height="624" xlink:href="ACC505A9.png"  transform="matrix(0.111 0 0 0.1111 14.771 30.3511)">
				</image>
			</g>
		</g>
	</g>
	<g>
		<path d="M1.185,38.589C1.114,36.812,1.037,35,0.953,33.152c0.672,0.057,1.351,0.104,2.037,0.146
			c0.686,0.041,1.365,0.062,2.037,0.062c0.336,0,0.742-0.014,1.218-0.041c0.476-0.026,0.959-0.049,1.449-0.063
			c0.49-0.014,0.959-0.033,1.407-0.062c0.447-0.027,0.825-0.041,1.134-0.041c0.42,0,0.938,0.014,1.554,0.041
			c0.615,0.029,1.266,0.113,1.953,0.252c0.686,0.141,1.365,0.352,2.037,0.631c0.672,0.279,1.281,0.687,1.827,1.219
			c0.546,0.531,0.987,1.195,1.323,1.994c0.336,0.799,0.504,1.785,0.504,2.961c0,1.849-0.399,3.347-1.197,4.494
			c-0.798,1.148-1.778,2.045-2.94,2.688c-1.162,0.646-2.394,1.077-3.696,1.303c-1.302,0.226-2.457,0.336-3.465,0.336
			c-0.645,0-1.232-0.007-1.764-0.021C5.839,49.035,5.293,49,4.733,48.943v2.311c0,1.849,0.035,3.668,0.105,5.461
			c0.069,1.791,0.147,3.556,0.231,5.291c-0.645-0.057-1.33-0.084-2.058-0.084s-1.414,0.027-2.058,0.084
			c0.084-1.735,0.161-3.5,0.231-5.291c0.069-1.793,0.105-3.612,0.105-5.461v-7.225C1.29,42.181,1.254,40.369,1.185,38.589z
			 M7.715,47.515c0.868,0,1.764-0.098,2.688-0.294c0.924-0.195,1.771-0.552,2.541-1.071c0.77-0.518,1.4-1.23,1.89-2.143
			c0.489-0.908,0.735-2.078,0.735-3.506c0-1.203-0.168-2.185-0.504-2.939c-0.336-0.757-0.805-1.346-1.407-1.766
			c-0.603-0.42-1.337-0.705-2.205-0.859c-0.868-0.154-1.848-0.23-2.94-0.23h-3.78V47.18C5.685,47.404,6.679,47.515,7.715,47.515z"/>
		<path d="M37.977,38.589c-0.07-1.777-0.147-3.59-0.231-5.438c0.812,0.057,1.61,0.104,2.394,0.146
			c0.784,0.041,1.582,0.062,2.394,0.062s1.61-0.034,2.394-0.104c0.784-0.068,1.582-0.104,2.394-0.104
			c1.176,0,2.295,0.111,3.36,0.336c1.064,0.225,1.995,0.596,2.793,1.113c0.798,0.518,1.428,1.195,1.89,2.036
			c0.462,0.841,0.693,1.89,0.693,3.149c0,1.344-0.301,2.5-0.903,3.465c-0.603,0.967-1.337,1.766-2.205,2.395
			c-0.868,0.631-1.799,1.121-2.793,1.471c-0.994,0.35-1.897,0.582-2.709,0.693c0.336,0.42,0.798,1.008,1.386,1.764
			s1.246,1.59,1.974,2.498c0.728,0.91,1.484,1.863,2.268,2.856c0.784,0.993,1.54,1.946,2.268,2.856
			c0.729,0.909,1.414,1.741,2.058,2.498c0.644,0.756,1.162,1.33,1.554,1.723c-0.42-0.057-0.84-0.084-1.26-0.084
			c-0.42,0-0.84,0-1.26,0c-0.393,0-0.798,0-1.218,0c-0.42,0-0.827,0.027-1.218,0.084c-0.42-0.588-1.058-1.471-1.911-2.646
			c-0.854-1.176-1.799-2.436-2.835-3.779s-2.094-2.682-3.171-4.012c-1.079-1.328-2.065-2.457-2.961-3.381h-1.596v3.066
			c0,1.848,0.035,3.668,0.105,5.459c0.069,1.793,0.147,3.557,0.231,5.293c-0.645-0.057-1.33-0.084-2.058-0.084
			c-0.729,0-1.414,0.027-2.058,0.084c0.084-1.736,0.161-3.5,0.231-5.293c0.069-1.791,0.105-3.611,0.105-5.459v-7.226
			C38.082,42.181,38.046,40.369,37.977,38.589z M42.806,46.591c0.462,0.027,0.973,0.041,1.533,0.041
			c0.868,0,1.771-0.098,2.709-0.293s1.799-0.539,2.583-1.029c0.784-0.489,1.435-1.146,1.953-1.975
			c0.518-0.824,0.777-1.869,0.777-3.129c0-1.092-0.204-1.994-0.609-2.709c-0.406-0.713-0.931-1.281-1.575-1.701
			c-0.645-0.42-1.344-0.705-2.1-0.859c-0.756-0.154-1.498-0.23-2.226-0.23c-0.98,0-1.792,0.021-2.436,0.062
			c-0.645,0.041-1.19,0.09-1.638,0.146c-0.057,1.539-0.112,3.065-0.168,4.578c-0.057,1.512-0.084,3.022-0.084,4.534v2.396
			C41.917,46.507,42.344,46.564,42.806,46.591z"/>
		<path d="M75.986,41.279c0.77-1.861,1.848-3.438,3.234-4.726c1.386-1.288,3.045-2.269,4.977-2.94
			c1.932-0.672,4.046-1.008,6.342-1.008c2.324,0,4.452,0.336,6.384,1.008c1.932,0.672,3.591,1.652,4.977,2.94
			c1.386,1.288,2.463,2.862,3.234,4.726c0.77,1.861,1.155,3.982,1.155,6.363c0,2.379-0.385,4.5-1.155,6.361
			c-0.771,1.863-1.848,3.438-3.234,4.727c-1.386,1.287-3.045,2.246-4.977,2.877c-1.932,0.629-4.06,0.943-6.384,0.943
			c-2.296,0-4.41-0.314-6.342-0.943c-1.932-0.631-3.591-1.59-4.977-2.877c-1.386-1.288-2.464-2.863-3.234-4.727
			c-0.771-1.861-1.155-3.982-1.155-6.361C74.831,45.261,75.215,43.14,75.986,41.279z M101.291,41.615
			c-0.588-1.693-1.407-3.094-2.457-4.199c-1.05-1.106-2.283-1.926-3.696-2.457c-1.414-0.533-2.947-0.799-4.599-0.799
			c-1.625,0-3.144,0.266-4.557,0.799c-1.414,0.531-2.646,1.351-3.696,2.457c-1.05,1.105-1.869,2.506-2.457,4.199
			s-0.882,3.703-0.882,6.027s0.294,4.332,0.882,6.025c0.588,1.694,1.407,3.096,2.457,4.201c1.05,1.104,2.282,1.926,3.696,2.457
			c1.414,0.53,2.933,0.797,4.557,0.797c1.652,0,3.185-0.267,4.599-0.797c1.414-0.531,2.646-1.353,3.696-2.457
			c1.05-1.105,1.869-2.507,2.457-4.201c0.588-1.693,0.882-3.701,0.882-6.025S101.879,43.308,101.291,41.615z"/>
		<path d="M134.157,44.197c1.973,3.754,4.036,7.604,6.194,11.551c0.278-0.531,0.687-1.295,1.217-2.289
			c0.531-0.994,1.147-2.135,1.849-3.424c0.701-1.287,1.449-2.68,2.248-4.178c0.797-1.498,1.608-3.018,2.436-4.559
			c0.827-1.539,1.645-3.051,2.457-4.535c0.812-1.483,1.568-2.869,2.268-4.158h0.547c0.308,2.688,0.594,5.285,0.861,7.791
			c0.266,2.507,0.537,4.971,0.818,7.393c0.279,2.422,0.561,4.816,0.84,7.183s0.588,4.711,0.924,7.034
			c-0.336-0.057-0.666-0.084-0.986-0.084c-0.322,0-0.651,0-0.988,0c-0.336,0-0.664,0-0.985,0s-0.649,0.027-0.985,0.084
			c-0.31-3.723-0.617-7.336-0.925-10.836c-0.309-3.5-0.688-7.069-1.135-10.709h-0.084c-1.933,3.527-3.83,7.035-5.69,10.521
			c-1.861,3.485-3.634,7.134-5.312,10.94h-0.379c-1.68-3.526-3.438-7.062-5.27-10.604c-1.834-3.541-3.677-7.159-5.523-10.856h-0.084
			c-0.197,1.736-0.414,3.619-0.65,5.649c-0.238,2.029-0.457,4.031-0.652,6.007c-0.194,1.973-0.362,3.836-0.504,5.586
			c-0.141,1.75-0.209,3.186-0.209,4.305c-0.449-0.057-0.938-0.084-1.471-0.084c-0.532,0-1.022,0.027-1.47,0.084
			c0.363-2.268,0.741-4.662,1.134-7.182c0.392-2.521,0.77-5.056,1.134-7.604c0.364-2.549,0.7-5.062,1.008-7.538
			c0.307-2.479,0.571-4.838,0.797-7.078h0.715C130.229,36.582,132.182,40.446,134.157,44.197z"/>
		<path d="M176.282,38.589c-0.07-1.777-0.146-3.59-0.23-5.438c0.363,0.057,0.714,0.104,1.05,0.146
			c0.336,0.041,0.672,0.062,1.008,0.062s0.673-0.021,1.009-0.062s0.687-0.09,1.051-0.146c-0.086,1.848-0.162,3.66-0.231,5.438
			c-0.069,1.779-0.104,3.592-0.104,5.438v7.226c0,1.848,0.035,3.668,0.104,5.459c0.069,1.793,0.146,3.557,0.231,5.293
			c-0.646-0.057-1.332-0.084-2.06-0.084c-0.729,0-1.414,0.027-2.058,0.084c0.084-1.736,0.16-3.5,0.229-5.293
			c0.069-1.791,0.104-3.611,0.104-5.459v-7.226C176.387,42.181,176.351,40.369,176.282,38.589z"/>
		<path d="M201.481,58.08c0.378,0.519,0.84,0.986,1.387,1.406s1.182,0.764,1.91,1.028c0.729,0.267,1.54,0.399,2.438,0.399
			c0.924,0,1.757-0.162,2.498-0.483c0.742-0.321,1.371-0.757,1.891-1.302c0.518-0.547,0.917-1.189,1.197-1.933
			c0.279-0.741,0.42-1.532,0.42-2.372c0-1.289-0.329-2.312-0.987-3.066c-0.657-0.756-1.478-1.387-2.457-1.891
			c-0.979-0.505-2.036-0.966-3.171-1.386c-1.134-0.42-2.191-0.944-3.171-1.576c-0.979-0.629-1.8-1.434-2.457-2.413
			c-0.658-0.98-0.987-2.297-0.987-3.949c0-1.176,0.211-2.246,0.631-3.213c0.42-0.965,1.028-1.799,1.826-2.498
			c0.799-0.699,1.758-1.246,2.879-1.64c1.118-0.392,2.379-0.588,3.778-0.588c1.345,0,2.506,0.162,3.485,0.483
			c0.979,0.322,1.891,0.818,2.729,1.49c-0.252,0.478-0.462,0.98-0.63,1.512c-0.168,0.533-0.336,1.205-0.504,2.017h-0.504
			c-0.141-0.392-0.329-0.817-0.566-1.28c-0.238-0.461-0.561-0.889-0.967-1.281c-0.406-0.392-0.889-0.721-1.447-0.986
			c-0.562-0.266-1.232-0.398-2.018-0.398s-1.505,0.125-2.163,0.379c-0.658,0.252-1.231,0.607-1.722,1.07
			c-0.49,0.461-0.868,1.016-1.135,1.658c-0.267,0.645-0.398,1.344-0.398,2.1c0,1.316,0.329,2.354,0.986,3.109
			c0.658,0.756,1.478,1.393,2.457,1.91c0.979,0.519,2.037,0.98,3.172,1.387c1.134,0.407,2.189,0.902,3.171,1.49
			c0.979,0.588,1.799,1.344,2.456,2.268c0.658,0.926,0.988,2.157,0.988,3.697c0,1.287-0.231,2.506-0.693,3.652
			c-0.463,1.148-1.135,2.149-2.016,3.004c-0.884,0.854-1.961,1.512-3.234,1.975c-1.274,0.461-2.725,0.691-4.348,0.691
			c-1.735,0-3.144-0.23-4.222-0.691c-1.077-0.463-1.979-0.986-2.709-1.576c0.252-0.643,0.427-1.225,0.524-1.742
			c0.099-0.518,0.188-1.183,0.273-1.994h0.504C200.803,57.048,201.104,57.56,201.481,58.08z"/>
		<path d="M235.836,38.527c-0.069-1.791-0.146-3.583-0.229-5.375c1.261,0.057,2.513,0.104,3.759,0.146
			c1.245,0.041,2.5,0.062,3.76,0.062s2.506-0.021,3.737-0.062c1.231-0.043,2.478-0.09,3.738-0.146
			c-0.084,0.42-0.126,0.84-0.126,1.26s0.042,0.84,0.126,1.26c-0.896-0.055-1.716-0.11-2.457-0.168
			c-0.742-0.055-1.526-0.11-2.353-0.168c-0.826-0.056-1.729-0.104-2.709-0.146c-0.98-0.043-2.156-0.063-3.528-0.063
			c-0.027,0.896-0.062,1.75-0.104,2.562c-0.041,0.812-0.062,1.736-0.062,2.771c0,1.093,0.007,2.156,0.021,3.192
			c0.014,1.035,0.021,1.82,0.021,2.353c1.231,0,2.338-0.014,3.317-0.043c0.979-0.027,1.877-0.062,2.688-0.104
			c0.812-0.043,1.562-0.084,2.247-0.127c0.686-0.041,1.336-0.09,1.951-0.146c-0.084,0.42-0.125,0.854-0.125,1.303
			c0,0.42,0.041,0.841,0.125,1.261c-0.729-0.084-1.573-0.153-2.541-0.211c-0.965-0.056-1.932-0.09-2.896-0.104
			c-0.965-0.014-1.876-0.027-2.73-0.041c-0.854-0.015-1.531-0.021-2.036-0.021c0,0.252-0.007,0.525-0.021,0.818
			c-0.016,0.295-0.021,0.666-0.021,1.113v1.639v2.52c0,1.598,0.007,2.913,0.021,3.948c0.014,1.036,0.034,1.821,0.062,2.353
			c0.925,0,1.903,0,2.94,0c1.062,0,2.105-0.021,3.129-0.062c1.021-0.042,1.987-0.098,2.897-0.168c0.909-0.069,1.7-0.176,2.373-0.314
			c-0.058,0.196-0.093,0.413-0.104,0.65c-0.016,0.238-0.021,0.456-0.021,0.65c0,0.449,0.042,0.812,0.126,1.092
			c-1.261-0.057-2.515-0.084-3.761-0.084c-1.245,0-2.512,0-3.801,0c-1.287,0-2.562,0-3.821,0c-1.261,0-2.534,0.027-3.821,0.084
			c0.084-1.791,0.16-3.575,0.23-5.354c0.068-1.776,0.104-3.59,0.104-5.438v-7.223C235.942,42.139,235.907,40.32,235.836,38.527z"/>
	</g>
</g>
<line fill="none" stroke="#FBC211" stroke-width="2" stroke-miterlimit="10" x1="0" y1="27.482" x2="252" y2="27.482"/>
<path fill="#ED1C24" d="M139.76-8.302"/>
<g>
	<path fill="#ED1C24" d="M86.452,8.887c1.514,2.876,3.097,5.828,4.75,8.854c0.214-0.407,0.526-0.992,0.934-1.755
		c0.407-0.761,0.88-1.637,1.417-2.624c0.536-0.987,1.11-2.056,1.722-3.204c0.612-1.148,1.234-2.312,1.867-3.494
		c0.634-1.18,1.261-2.339,1.884-3.478c0.623-1.138,1.203-2.199,1.739-3.188h0.419c0.236,2.061,0.456,4.052,0.66,5.973
		c0.204,1.921,0.413,3.811,0.628,5.667c0.214,1.857,0.429,3.692,0.644,5.506c0.214,1.814,0.451,3.611,0.708,5.393
		c-0.257-0.042-0.51-0.063-0.757-0.063s-0.499,0-0.757,0c-0.258,0-0.509,0-0.756,0c-0.248,0-0.5,0.021-0.757,0.063
		c-0.236-2.854-0.472-5.623-0.708-8.307c-0.236-2.683-0.526-5.42-0.869-8.211h-0.064c-1.48,2.706-2.936,5.394-4.363,8.067
		c-1.427,2.672-2.785,5.468-4.073,8.388h-0.29c-1.288-2.705-2.635-5.415-4.041-8.13c-1.406-2.716-2.817-5.491-4.234-8.325H82.09
		c-0.15,1.332-0.316,2.776-0.499,4.332c-0.182,1.556-0.35,3.091-0.5,4.604c-0.149,1.513-0.279,2.941-0.386,4.283
		c-0.107,1.342-0.161,2.442-0.161,3.3c-0.343-0.042-0.719-0.063-1.126-0.063c-0.409,0-0.784,0.021-1.127,0.063
		c0.278-1.738,0.568-3.573,0.869-5.505c0.301-1.932,0.591-3.875,0.87-5.828c0.278-1.953,0.536-3.88,0.773-5.78
		C81.038,3.526,81.24,1.718,81.414,0h0.547C83.442,3.048,84.938,6.01,86.452,8.887z"/>
	<path fill="#ED1C24" d="M126.297,22.539c-0.301-0.042-0.583-0.063-0.854-0.063c-0.268,0-0.553,0-0.854,0c-0.3,0-0.584,0-0.852,0
		c-0.269,0-0.554,0.021-0.854,0.063c-0.15-0.493-0.354-1.089-0.612-1.786c-0.257-0.698-0.541-1.428-0.853-2.189
		c-0.311-0.762-0.627-1.535-0.95-2.318c-0.321-0.784-0.622-1.53-0.9-2.238c-0.688-0.021-1.385-0.038-2.093-0.048
		c-0.708-0.011-1.417-0.016-2.125-0.016c-0.666,0-1.321,0.005-1.964,0.016c-0.643,0.011-1.299,0.027-1.964,0.048
		c-0.688,1.674-1.31,3.269-1.868,4.782c-0.558,1.513-0.977,2.764-1.256,3.75c-0.365-0.042-0.762-0.063-1.191-0.063
		c-0.431,0-0.827,0.021-1.191,0.063c1.738-3.756,3.434-7.491,5.087-11.205c1.653-3.713,3.316-7.491,4.992-11.334h0.611
		c0.516,1.245,1.074,2.592,1.674,4.041c0.601,1.449,1.212,2.914,1.836,4.396c0.622,1.481,1.244,2.951,1.866,4.411
		c0.622,1.459,1.209,2.817,1.755,4.073c0.547,1.256,1.041,2.378,1.481,3.365C125.659,21.272,126.019,22.024,126.297,22.539z
		 M112.033,12.525c0.559,0,1.139,0.011,1.74,0.032c0.601,0.022,1.18,0.032,1.738,0.032c0.601,0,1.203-0.004,1.803-0.016
		c0.601-0.011,1.202-0.027,1.803-0.048l-3.573-8.179L112.033,12.525z"/>
	<path fill="#ED1C24" d="M129.92,4.588c-0.053-1.362-0.112-2.753-0.18-4.169c0.623,0.043,1.235,0.081,1.838,0.113
		c0.6,0.032,1.211,0.048,1.834,0.048s1.234-0.027,1.836-0.081s1.211-0.081,1.834-0.081c0.902,0,1.76,0.087,2.576,0.258
		c0.815,0.172,1.529,0.456,2.143,0.854c0.611,0.397,1.094,0.917,1.449,1.561c0.354,0.644,0.529,1.449,0.529,2.416
		c0,1.03-0.229,1.916-0.691,2.656c-0.461,0.741-1.023,1.352-1.69,1.834c-0.666,0.483-1.379,0.859-2.142,1.127
		c-0.762,0.269-1.453,0.446-2.076,0.531c0.258,0.322,0.611,0.773,1.064,1.353c0.448,0.579,0.953,1.219,1.512,1.916
		c0.558,0.698,1.138,1.428,1.738,2.189c0.602,0.762,1.182,1.493,1.739,2.19c0.558,0.697,1.082,1.336,1.576,1.916
		c0.493,0.579,0.892,1.021,1.192,1.319c-0.323-0.042-0.646-0.063-0.967-0.063c-0.322,0-0.644,0-0.967,0c-0.301,0-0.611,0-0.934,0
		c-0.321,0-0.633,0.021-0.934,0.063c-0.322-0.45-0.812-1.126-1.466-2.028c-0.655-0.902-1.38-1.868-2.174-2.898
		c-0.795-1.03-1.604-2.055-2.431-3.074c-0.826-1.02-1.584-1.884-2.271-2.592h-1.226v2.351c0,1.416,0.029,2.812,0.082,4.185
		c0.055,1.373,0.111,2.726,0.178,4.057c-0.494-0.042-1.02-0.063-1.577-0.063c-0.557,0-1.083,0.021-1.579,0.063
		c0.066-1.331,0.127-2.683,0.18-4.057s0.08-2.769,0.08-4.185V8.758C130,7.341,129.973,5.952,129.92,4.588z M133.622,10.722
		c0.354,0.022,0.746,0.032,1.176,0.032c0.666,0,1.357-0.075,2.076-0.226c0.719-0.15,1.381-0.413,1.98-0.789
		c0.602-0.375,1.102-0.88,1.497-1.513c0.396-0.633,0.596-1.433,0.596-2.399c0-0.837-0.155-1.529-0.467-2.077
		c-0.312-0.547-0.714-0.982-1.207-1.304c-0.494-0.322-1.028-0.542-1.608-0.661c-0.582-0.117-1.15-0.177-1.707-0.177
		c-0.752,0-1.375,0.017-1.869,0.048c-0.493,0.032-0.912,0.07-1.256,0.113c-0.043,1.181-0.086,2.351-0.129,3.509
		c-0.041,1.16-0.064,2.318-0.064,3.478v1.835C132.94,10.658,133.268,10.701,133.622,10.722z"/>
	<path fill="#ED1C24" d="M152.909,11.896c-0.418-0.696-0.88-1.469-1.384-2.317c-0.505-0.848-1.036-1.739-1.594-2.672
		c-0.56-0.934-1.091-1.824-1.595-2.672c-0.506-0.848-0.961-1.61-1.367-2.287c-0.409-0.676-0.721-1.186-0.936-1.529
		c0.301,0.043,0.596,0.081,0.887,0.113c0.289,0.032,0.584,0.048,0.885,0.048c0.3,0,0.596-0.017,0.886-0.048
		c0.289-0.032,0.584-0.07,0.886-0.113c0.965,1.868,1.948,3.703,2.946,5.506c0.997,1.803,2.056,3.682,3.171,5.635
		c0.494-0.772,1.01-1.621,1.547-2.544c0.536-0.922,1.072-1.867,1.609-2.833c0.537-0.966,1.051-1.937,1.545-2.914
		c0.494-0.976,0.955-1.926,1.387-2.85c0.534,0.108,0.953,0.162,1.254,0.162s0.721-0.054,1.256-0.162
		c-1.03,1.567-1.953,2.984-2.77,4.25c-0.816,1.267-1.536,2.415-2.158,3.445c-0.621,1.03-1.169,1.959-1.641,2.785
		c-0.473,0.827-0.883,1.573-1.227,2.237c0,0.794,0.006,1.643,0.019,2.544c0.01,0.902,0.026,1.787,0.048,2.656
		c0.021,0.87,0.049,1.674,0.081,2.416c0.032,0.74,0.069,1.336,0.112,1.786c-0.494-0.042-1.021-0.063-1.577-0.063
		c-0.558,0-1.084,0.021-1.579,0.063c0.131-1.116,0.206-2.468,0.229-4.057c0.021-1.588,0.031-3.252,0.031-4.991
		C153.644,13.126,153.327,12.595,152.909,11.896z"/>
	<path fill="#ED1C24" d="M168.075,4.588c-0.054-1.362-0.111-2.753-0.178-4.169c0.277,0.043,0.548,0.081,0.805,0.113
		c0.258,0.032,0.516,0.048,0.771,0.048c0.26,0,0.518-0.017,0.775-0.048c0.256-0.032,0.524-0.07,0.803-0.113
		c-0.064,1.417-0.123,2.807-0.176,4.169c-0.055,1.364-0.082,2.753-0.082,4.17c0,2.705,0.012,5.05,0.035,7.036
		c0.02,1.985,0.041,3.762,0.062,5.329c1.524,0,2.985-0.016,4.38-0.048c1.395-0.033,2.896-0.155,4.508-0.37
		c-0.107,0.386-0.16,0.708-0.16,0.965c0,0.237,0.053,0.527,0.16,0.869c-0.988-0.042-1.974-0.063-2.963-0.063
		c-0.986,0-1.975,0-2.962,0c-1.031,0-2.022,0-2.978,0s-1.949,0.021-2.979,0.063c0.065-1.331,0.124-2.683,0.177-4.057
		c0.055-1.374,0.081-2.769,0.081-4.185V8.758C168.155,7.341,168.127,5.952,168.075,4.588z"/>
	<path fill="#ED1C24" d="M202.029,22.539c-0.301-0.042-0.585-0.063-0.854-0.063c-0.268,0-0.553,0-0.854,0s-0.585,0-0.854,0
		c-0.268,0-0.553,0.021-0.854,0.063c-0.15-0.493-0.354-1.089-0.611-1.786c-0.258-0.698-0.543-1.428-0.854-2.189
		c-0.312-0.762-0.627-1.535-0.949-2.318c-0.322-0.783-0.621-1.53-0.9-2.238c-0.688-0.021-1.385-0.038-2.094-0.048
		c-0.707-0.01-1.418-0.016-2.125-0.016c-0.666,0-1.319,0.005-1.965,0.016c-0.644,0.011-1.298,0.027-1.964,0.048
		c-0.688,1.674-1.31,3.269-1.868,4.782c-0.558,1.513-0.977,2.764-1.256,3.75c-0.363-0.042-0.762-0.063-1.191-0.063
		c-0.428,0-0.824,0.021-1.189,0.063c1.739-3.756,3.434-7.491,5.089-11.205c1.65-3.713,3.315-7.491,4.989-11.334h0.611
		c0.515,1.245,1.072,2.592,1.675,4.041c0.601,1.449,1.212,2.914,1.835,4.396c0.621,1.481,1.244,2.951,1.867,4.411
		c0.623,1.459,1.209,2.817,1.754,4.073c0.55,1.256,1.041,2.378,1.48,3.365C201.39,21.272,201.749,22.024,202.029,22.539z
		 M187.764,12.525c0.559,0,1.138,0.011,1.738,0.032c0.602,0.022,1.182,0.032,1.74,0.032c0.6,0,1.2-0.004,1.801-0.016
		c0.604-0.011,1.205-0.027,1.805-0.048l-3.574-8.179L187.764,12.525z"/>
	<path fill="#ED1C24" d="M215.971,14.184c-2.793-2.995-5.582-5.973-8.372-8.935c-0.021,0.601-0.045,1.406-0.065,2.415
		c-0.021,1.01-0.031,2.382-0.031,4.122c0,0.451,0.006,1.009,0.017,1.674c0.011,0.666,0.021,1.364,0.032,2.093
		c0.01,0.73,0.027,1.471,0.049,2.222s0.043,1.449,0.062,2.092c0.021,0.645,0.043,1.208,0.065,1.691
		c0.021,0.483,0.043,0.811,0.063,0.981c-0.344-0.042-0.72-0.063-1.127-0.063c-0.43,0-0.826,0.021-1.191,0.063
		c0.044-0.214,0.092-0.612,0.146-1.191c0.053-0.579,0.101-1.271,0.145-2.077c0.043-0.804,0.091-1.68,0.146-2.624
		c0.053-0.944,0.096-1.889,0.127-2.834c0.032-0.944,0.06-1.867,0.082-2.769c0.021-0.901,0.031-1.706,0.031-2.415
		c0-2.061-0.006-3.832-0.018-5.313S206.096,0.73,206.054,0h0.514c1.31,1.417,2.71,2.936,4.202,4.556
		c1.492,1.622,2.975,3.22,4.443,4.797c1.471,1.578,2.867,3.07,4.187,4.476c1.319,1.406,2.474,2.604,3.461,3.59V13.04
		c0-2.253-0.017-4.448-0.049-6.584c-0.03-2.135-0.103-4.148-0.208-6.038c0.43,0.108,0.793,0.162,1.096,0.162
		c0.256,0,0.6-0.054,1.028-0.162c-0.043,0.473-0.091,1.181-0.146,2.125c-0.055,0.945-0.107,1.953-0.16,3.026
		c-0.055,1.074-0.104,2.125-0.146,3.156c-0.044,1.03-0.062,1.857-0.062,2.479c0,0.537,0,1.181,0,1.932
		c0,0.73,0.005,1.493,0.016,2.286c0.01,0.794,0.021,1.594,0.033,2.399c0.009,0.805,0.02,1.556,0.031,2.254
		c0.011,0.698,0.017,1.303,0.017,1.819c0,0.473,0,0.825,0,1.062h-0.451C221.391,20.103,218.76,17.178,215.971,14.184z"/>
	<path fill="#ED1C24" d="M230.7,4.588c-0.054-1.362-0.111-2.753-0.178-4.169c0.816,0.043,1.626,0.081,2.432,0.113
		c0.805,0.032,1.614,0.048,2.432,0.048c0.814,0,1.627-0.027,2.432-0.081s1.614-0.081,2.43-0.081c1.89,0,3.506,0.247,4.848,0.74
		c1.341,0.495,2.441,1.198,3.299,2.109c0.859,0.913,1.488,2.029,1.886,3.349c0.396,1.32,0.595,2.807,0.595,4.459
		c0,2.146-0.369,3.956-1.109,5.426c-0.74,1.47-1.686,2.657-2.833,3.558c-1.149,0.901-2.416,1.54-3.8,1.915
		c-1.385,0.376-2.713,0.563-3.978,0.563c-0.729,0-1.45-0.011-2.157-0.031c-0.709-0.022-1.429-0.032-2.156-0.032
		c-0.73,0-1.449,0-2.157,0c-0.709,0-1.429,0.021-2.158,0.063c0.065-1.331,0.124-2.683,0.179-4.057
		c0.053-1.374,0.08-2.769,0.08-4.185V8.758C230.78,7.341,230.752,5.952,230.7,4.588z M233.614,21.123
		c0.45,0.107,1.062,0.188,1.836,0.241c0.771,0.054,1.565,0.081,2.383,0.081c1.18,0,2.358-0.14,3.541-0.418
		c1.182-0.279,2.237-0.805,3.172-1.578c0.935-0.772,1.695-1.83,2.287-3.171c0.588-1.341,0.883-3.075,0.883-5.201
		c0-1.868-0.229-3.402-0.69-4.604c-0.462-1.202-1.094-2.151-1.899-2.85c-0.806-0.697-1.766-1.18-2.881-1.448
		c-1.115-0.269-2.342-0.403-3.672-0.403c-0.966,0-1.867,0.032-2.705,0.097c-0.836,0.064-1.589,0.14-2.252,0.225
		c-0.063,1.031-0.113,2.11-0.146,3.236c-0.032,1.127-0.049,2.27-0.049,3.429v5.539C233.42,16.614,233.485,18.89,233.614,21.123z"/>
</g>
<rect x="-126" y="-60.852" fill="none" width="109.667" height="65.5"/>
<text transform="matrix(1 0 0 1 -126 -52.332)" font-family="'MyriadPro-Regular'" font-size="12">Optima Font </text>
</svg>
